<?xml version="1.0" standalone="no"?>
<!DOCTYPE svg PUBLIC "-//W3C//DTD SVG 20010904//EN"
 "http://www.w3.org/TR/2001/REC-SVG-20010904/DTD/svg10.dtd">
<svg version="1.0" xmlns="http://www.w3.org/2000/svg"
 width="204.000000pt" height="256.000000pt" viewBox="0 0 204.000000 256.000000"
 preserveAspectRatio="xMidYMid meet">

<g transform="translate(0.000000,256.000000) scale(0.100000,-0.100000)"
fill="#000000" stroke="none">
<path d="M795 2531 c-225 -47 -412 -139 -593 -291 l-74 -62 89 -93 c48 -51 92
-93 96 -94 4 0 35 22 68 49 128 106 255 173 415 216 86 24 118 27 244 27 123
0 159 -4 241 -25 124 -33 220 -75 309 -134 l72 -47 -801 -800 c-440 -440 -801
-803 -801 -807 0 -16 165 -171 238 -223 379 -273 891 -314 1307 -105 104 53
210 125 280 190 l56 53 -89 89 -89 88 -84 -67 c-99 -78 -271 -166 -384 -197
-65 -17 -110 -21 -240 -22 -187 -1 -267 14 -409 75 -86 37 -216 114 -216 128
0 3 358 364 795 801 437 437 795 800 795 806 0 15 -154 165 -220 215 -133 100
-277 168 -460 217 -131 34 -408 41 -545 13z"/>
<path d="M653 1801 c-12 -30 -27 -46 -65 -66 -46 -25 -54 -26 -90 -16 -30 10
-43 10 -54 0 -20 -16 -18 -26 11 -51 37 -32 49 -79 32 -120 -12 -28 -39 -47
-183 -128 -216 -122 -270 -169 -279 -249 -4 -31 19 -71 40 -71 8 0 15 -4 15
-9 0 -12 225 -211 238 -211 6 0 32 28 59 62 52 66 229 205 274 215 17 3 98 77
225 204 109 109 196 200 194 203 -3 2 -45 36 -95 76 -63 50 -92 80 -95 98 -4
20 -11 27 -30 27 -45 1 -112 28 -127 52 -24 36 -52 29 -70 -16z"/>
<path d="M1157 1142 c-97 -97 -177 -181 -177 -185 0 -4 10 -7 21 -7 13 0 39
19 63 44 50 54 96 66 159 42 23 -9 104 -66 180 -127 77 -61 141 -108 144 -105
3 3 27 -10 53 -29 54 -40 66 -36 115 34 25 38 29 40 45 26 24 -22 35 -19 64
19 30 39 32 58 11 76 -8 7 -15 19 -15 27 0 8 -7 27 -15 44 -14 26 -20 29 -49
24 -30 -6 -45 4 -218 144 -103 83 -190 151 -195 151 -5 0 -88 -80 -186 -178z"/>
</g>
</svg>
