<svg xmlns="http://www.w3.org/2000/svg" width="1080" height="1080">
          <path
            fill="currentColor"
            d="M505.5 5.5C664.561-.74 801.228 50.76 915.5 160a510.759 510.759 0 0 1 36 40c-32.249 32.914-64.415 65.747-96.5 98.5a492590.499 492590.499 0 0 0-578 577c-.72 1.612-.554 3.112.5 4.5a200.661 200.661 0 0 1 19 14 460.88 460.88 0 0 0 35 20.5c2.151 3.076 5.151 4.576 9 4.5l3 3c105.109 52.562 214.442 61.896 328 28 63.601-21.149 119.601-55.149 168-102 1.555-1.289 3.221-1.956 5-2a3510.158 3510.158 0 0 1 70 71 358.99 358.99 0 0 1-38 36c-127.996 100.5-272.663 137.5-434 111-107.333-20.66-199.999-68.659-278-144a535.626 535.626 0 0 1-37-41 2748.305 2748.305 0 0 1 78-74.5 507453.954 507453.954 0 0 1 598.5-599c.72-1.612.554-3.112-.5-4.5a1163.78 1163.78 0 0 0-47-32 1066.288 1066.288 0 0 0-39-20c-15.182-6.3-30.516-12.3-46-18a1184.223 1184.223 0 0 0-57-14c-130.202-19.352-245.869 11.314-347 92a319.895 319.895 0 0 0-31 29c-.667.667-1.333.667-2 0L161 164.5c-.667-1-.667-2 0-3 95.886-93.013 210.719-145.012 344.5-156Z"
          />
          <path
            fill="currentColor"
            d="M136.5 614.5v-3h-9c-6.584-.92-10.584-4.586-12-11v-12a14.093 14.093 0 0 1 1-3.5c-1.747-2.98-2.247-6.147-1.5-9.5 12.002-25.669 30.502-45.169 55.5-58.5 42.59-23.6 84.923-47.6 127-72 18.49-18.774 20.657-39.274 6.5-61.5a148.31 148.31 0 0 0-15-14c-3.699-5.847-2.865-11.014 2.5-15.5a20.2 20.2 0 0 1 6-1.5 112.187 112.187 0 0 0 21 7.5c6.488.834 12.821.168 19-2a1780.967 1780.967 0 0 0 34.5-20.5 1326.223 1326.223 0 0 1 10.5-27c5.359-4.451 11.026-4.951 17-1.5a95.723 95.723 0 0 0 11 15c7.897 4.12 16.23 6.786 25 8l13.5 9.5a168.466 168.466 0 0 1 10.5-6.5c5.393-.117 9.06 2.383 11 7.5a189.825 189.825 0 0 1-4 13 7806.257 7806.257 0 0 1 82.5 66c.667.667.667 1.333 0 2L386.5 586c-8.561-.193-16.561 1.807-24 6a2615.798 2615.798 0 0 0-70 51c-19.05 16.709-35.55 35.542-49.5 56.5-3.554 4.951-8.054 6.118-13.5 3.5a5083.66 5083.66 0 0 1-89.5-80.5c-1.993-2.318-3.159-4.984-3.5-8Zm-12-22a39.71 39.71 0 0 0 7 5c1.231 1.151 1.231 2.317 0 3.5-4.365 1.979-7.032.479-8-4.5a343.58 343.58 0 0 0 1-4Zm540-68a8.43 8.43 0 0 1 4 .5A9301.525 9301.525 0 0 0 828 652.5a22.2 22.2 0 0 1 6-2l6 2a69.954 69.954 0 0 0 10-5c11.533 8.37 15.699 19.37 12.5 33l16 14a11.25 11.25 0 0 1 1 3.5c-5.299 11.983-12.965 22.316-23 31-1.544 1.187-3.211 1.52-5 1a271.355 271.355 0 0 0-16-11.5 299.195 299.195 0 0 0-24.5 32c-3.912 4.583-8.412 8.417-13.5 11.5-1.333.667-2.667.667-4 0l-37-27.5a12.403 12.403 0 0 0-4 2.5c-1.333.667-2.667.667-4 0a1992.01 1992.01 0 0 0-119-93c-23.507-14.094-46.84-13.761-70 1a128.996 128.996 0 0 0-19.5 21.5l-12 12a105.709 105.709 0 0 1-11.5-5l148-149Z"
          />
        </svg>